<svg width="1024" height="1024" xmlns="http://www.w3.org/2000/svg" class="icon">
 <g>
  <title>Layer 1</title>
  <path d="m842.6,315.36667c6,6 9.4,14.1 9.4,22.6l0,616.7c0,17.7 -14.3,32 -32,32l-640,0c-17.7,0 -32,-14.3 -32,-32l0,-832c0,-17.7 14.3,-32 32,-32l424.7,0c8.5,0 16.7,3.4 22.7,9.4l215.2,215.3zm-64.4,37.3l-188.2,-188.2l0,188.2l188.2,0z" id="svg_1" fill="#c5cacf"/>
  <path fill="#c5cacf" stroke="null" stroke-width="null" stroke-dasharray="null" stroke-opacity="null" fill-opacity="null" opacity="undefined" d="m1148.00004,756.00002l189.33331,-1.33334l-189.33333,-188l0.00003,189.33334l-0.00001,0z" id="svg_2"/>
 </g>

</svg>